/* XPM */
static const char * qtcolorpicker_xpm[] = {
"22 19 6 1",
" 	c #000000",
".	c #00008C",
"+	c #8C008C",
"@	c #00FFFF",
"#	c #DEDFE7",
"$	c #FFFF00",
"         ###         #",
" ........### @@@@@@@@#",
" ........### @@@@@@@@#",
" ........### @@@@@@@@#",
" ........### @@@@@@@@#",
" ........### @@@@@@@@#",
" ........### @@@@@@@@#",
"         ###         #",
"######################",
"######################",
"######################",
" ++++++++### $$$$$$$$#",
" ++++++++### $$$$$$$$#",
" ++++++++### $$$$$$$$#",
" ++++++++### $$$$$$$$#",
" ++++++++### $$$$$$$$#",
" ++++++++### $$$$$$$$#",
" ++++++++### $$$$$$$$#",
"######################"};
